<svg width="20" height="17" viewBox="0 0 20 17" fill="none" xmlns="http://www.w3.org/2000/svg">
<path d="M1.10803 2.66667H18.892C19.5039 2.66667 20 2.14433 20 1.5C20 0.85567 19.5039 0.333336 18.892 0.333336H1.10803C0.496083 0.333336 0 0.85567 0 1.5C0 2.14433 0.496083 2.66667 1.10803 2.66667Z" fill="#212529"/>
<path d="M1.10803 9.66667H18.892C19.5039 9.66667 20 9.14433 20 8.5C20 7.85567 19.5039 7.33334 18.892 7.33334H1.10803C0.496083 7.33334 0 7.85567 0 8.5C0 9.14433 0.496083 9.66667 1.10803 9.66667Z" fill="#212529"/>
<path d="M1.06078 16.6667H12.9392C13.5251 16.6667 14 16.1443 14 15.5C14 14.8557 13.5251 14.3333 12.9392 14.3333H1.06078C0.474928 14.3333 0 14.8557 0 15.5C0 16.1443 0.474928 16.6667 1.06078 16.6667Z" fill="#212529"/>
</svg>
